<svg xmlns="http://www.w3.org/2000/svg" width="1011" height="201">
  <defs>
    <filter id="softGlow" height="300%" width="300%" x="-75%" y="-75%">
      <feMorphology operator="dilate" radius="4" in="SourceAlpha" result="thicken" />
      <feGaussianBlur in="thicken" stdDeviation="10" result="blurred" />
      <feFlood flood-color="rgb(255,228,0, 0.8)" result="glowColor" />
      <feComposite in="glowColor" in2="blurred" operator="in" result="softGlow_colored" />
      <feMerge>
        <feMergeNode in="softGlow_colored"/>
        <feMergeNode in="SourceGraphic"/>
      </feMerge>
    </filter>
  </defs>

  <path filter="url(#softGlow)" fill-rule="evenodd" stroke-width="6" stroke="#71BAC3" fill="#262B5C" d="M32.2 32.6l720 6.2 4 12.3 119-6.2 18.5 6.2L904 38.8l73.8-2-18.4 129-244.1-8.1s-6.7-9.9-10.3 2c.4-1-301.5-4-301.5-4l-10.3 12.2-344.6-8.2-16.4-127z"/>
  <path fill-rule="evenodd" fill="#FFF" d="M858.5 98.5H881c2.5 0 4.6 1 6.3 2.7a8.7 8.7 0 0 1 2.7 6.3v9c0 2.6-.9 4.7-2.7 6.4a8.8 8.8 0 0 1-6.3 2.6h-27c-2.5 0-4.7-.8-6.4-2.6a8.8 8.8 0 0 1-2.6-6.4V112h9c0 1.3.4 2.4 1.3 3.3.9.8 2 1.2 3.2 1.2h18a4.4 4.4 0 0 0 4.5-4.5c0-1.2-.4-2.2-1.3-3.1-1-1-2-1.4-3.2-1.4H854c-2.5 0-4.7-.8-6.4-2.6a8.8 8.8 0 0 1-2.6-6.4v-9c0-2.4.9-4.6 2.6-6.3 1.8-1.8 4-2.7 6.4-2.7h27c2.5 0 4.6 1 6.3 2.7a8.7 8.7 0 0 1 2.7 6.3V94h-9c0-1.2-.4-2.2-1.3-3.1-1-1-2-1.4-3.2-1.4h-18c-1.3 0-2.3.5-3.2 1.4-.9.9-1.3 2-1.3 3.1 0 1.3.4 2.4 1.3 3.3.9.8 2 1.2 3.2 1.2zm-27 9h-27v18h-9v-45h36c2.5 0 4.6 1 6.3 2.7a8.7 8.7 0 0 1 2.7 6.3v9c0 2.6-.9 4.7-2.7 6.4a8.8 8.8 0 0 1-6.3 2.6zM830.2 91c-1-1-2-1.4-3.2-1.4h-22.5v9H827a4.4 4.4 0 0 0 4.5-4.5c0-1.2-.4-2.2-1.3-3.1zM782 125.5h-27c-2.5 0-4.7-.8-6.4-2.6a8.8 8.8 0 0 1-2.6-6.4v-27c0-2.4.9-4.6 2.6-6.3 1.8-1.8 4-2.7 6.4-2.7h27c2.5 0 4.6 1 6.3 2.7a8.7 8.7 0 0 1 2.7 6.3v27c0 2.6-.9 4.7-2.7 6.4a8.8 8.8 0 0 1-6.3 2.6zm0-31.5c0-1.2-.4-2.2-1.3-3.1-1-1-2-1.4-3.2-1.4h-18c-1.3 0-2.3.5-3.2 1.4-.9.9-1.3 2-1.3 3.1v18c0 1.3.4 2.4 1.3 3.3.9.8 2 1.2 3.2 1.2h18a4.4 4.4 0 0 0 4.5-4.5V94zm-72 31.5h-27c-2.5 0-4.7-.8-6.4-2.6a8.8 8.8 0 0 1-2.6-6.4v-27c0-2.4.9-4.6 2.6-6.3 1.8-1.8 4-2.7 6.4-2.7h27c2.5 0 4.6 1 6.3 2.7a8.7 8.7 0 0 1 2.7 6.3V94h-9c0-1.2-.4-2.2-1.3-3.1-1-1-2-1.4-3.2-1.4h-18c-1.3 0-2.3.5-3.2 1.4-.9.9-1.3 2-1.3 3.1v18c0 1.3.4 2.4 1.3 3.3.9.8 2 1.2 3.2 1.2h18a4.4 4.4 0 0 0 4.5-4.5h9v4.5c0 2.6-.9 4.7-2.7 6.4a8.8 8.8 0 0 1-6.3 2.6zm-85.5-45h45v9h-36v9h27v9h-27v9h36v9h-45v-45zm-13.5 45h-27c-2.5 0-4.7-.8-6.4-2.6a8.8 8.8 0 0 1-2.6-6.4V112h9c0 1.3.4 2.4 1.3 3.3.9.8 2 1.2 3.2 1.2h18a4.4 4.4 0 0 0 4.5-4.5c0-1.2-.4-2.2-1.3-3.1-1-1-2-1.4-3.2-1.4H584c-2.5 0-4.7-.8-6.4-2.6a8.8 8.8 0 0 1-2.6-6.4v-9c0-2.4.9-4.6 2.6-6.3 1.8-1.8 4-2.7 6.4-2.7h27c2.5 0 4.6 1 6.3 2.7a8.7 8.7 0 0 1 2.7 6.3V94h-9c0-1.2-.4-2.2-1.3-3.1-1-1-2-1.4-3.2-1.4h-18A4.4 4.4 0 0 0 584 94c0 1.3.4 2.4 1.3 3.3.9.8 2 1.2 3.2 1.2H611c2.5 0 4.6 1 6.3 2.7a8.7 8.7 0 0 1 2.7 6.3v9c0 2.6-.9 4.7-2.7 6.4a8.8 8.8 0 0 1-6.3 2.6zm-108-45h9l13.5 27 13.5-27h9l-22.5 45-22.5-45zm-49.5 0h45v9h-36v9h27v9h-27v9h36v9h-45v-45zm-13.5 45h-36v-45h36c2.5 0 4.6 1 6.3 2.7a8.7 8.7 0 0 1 2.7 6.3v27c0 2.6-.9 4.7-2.7 6.4a8.8 8.8 0 0 1-6.3 2.6zm0-31.5c0-1.2-.4-2.2-1.3-3.1-1-1-2-1.4-3.2-1.4H413v27h22.5a4.4 4.4 0 0 0 4.5-4.5V94zm-99 4.5h27v9h-27v18h-9v-45h45v9h-36v9zm-22.5 27h-27c-2.5 0-4.7-.8-6.4-2.6a8.8 8.8 0 0 1-2.6-6.4v-27c0-2.4.9-4.6 2.6-6.3 1.8-1.8 4-2.7 6.4-2.7h27c2.5 0 4.6 1 6.3 2.7a8.7 8.7 0 0 1 2.7 6.3v27c0 2.6-.9 4.7-2.7 6.4a8.8 8.8 0 0 1-6.3 2.6zm0-31.5c0-1.2-.4-2.2-1.3-3.1-1-1-2-1.4-3.2-1.4h-18a4.4 4.4 0 0 0-4.5 4.5v18c0 1.3.4 2.4 1.3 3.3.9.8 2 1.2 3.2 1.2h18a4.4 4.4 0 0 0 4.5-4.5V94zm-108-13.5h45v9h-36v9h27v9h-27v9h36v9h-45v-45zm-13.5 45h-27c-2.5 0-4.7-.8-6.4-2.6a8.8 8.8 0 0 1-2.6-6.4v-27c0-2.4.9-4.6 2.6-6.3 1.8-1.8 4-2.7 6.4-2.7h27c2.5 0 4.6 1 6.3 2.7a8.7 8.7 0 0 1 2.7 6.3V94h-9c0-1.2-.4-2.2-1.3-3.1-1-1-2-1.4-3.2-1.4h-18A4.4 4.4 0 0 0 170 94v18c0 1.3.4 2.4 1.3 3.3.9.8 2 1.2 3.2 1.2h18a4.4 4.4 0 0 0 4.5-4.5v-4.5h-18v-9h27v18c0 2.6-.9 4.7-2.7 6.4a8.8 8.8 0 0 1-6.3 2.6zm-45 0l-2.3-4.5h-22.4l-2.3 4.5h-9l22.5-45 22.5 45h-9zm-13.5-27l-6.8 13.5h13.6l-6.8-13.5z"/>
</svg>
